# Blender v2.76 (sub 0) OBJ File: ''
# www.blender.org
mtllib Basic Tree 2.mtl
o polygon2.033
v 1.967773 3.377441 0.061524
v 1.751953 3.391602 0.336915
v 1.232910 2.239746 0.045411
v 1.001953 2.386719 0.395996
v 0.151367 1.368652 0.455078
v -0.038574 1.843262 0.093262
v -0.319336 1.759277 0.479492
v -0.747070 2.940430 0.103516
v -0.999023 2.839844 0.316407
v -1.056152 -0.000000 0.012207
v -0.503418 -0.000000 0.515625
v -0.538574 0.811523 0.085449
v 0.033203 -0.000000 1.500000
v -0.051758 0.773437 0.690430
v 0.705566 0.811523 -0.021484
v 0.521484 1.108398 0.029785
v -0.708496 1.863281 0.093262
v -0.538574 0.811523 0.085449
v -0.319336 1.759277 0.479492
v -0.051758 0.773437 0.690430
v 0.151367 1.368652 0.455078
v 0.521484 1.108398 0.029785
v 1.232910 2.239746 0.045411
v -1.793945 4.434082 0.096192
v -1.310059 2.725098 0.128907
v -1.652832 4.434082 0.196290
v -0.999023 2.839844 0.316407
v -1.437500 4.434082 0.096192
v -0.747070 2.940430 0.103516
v 1.175781 0.000000 -0.094727
v 0.705566 0.811523 -0.021484
v 0.598633 -0.000000 0.420410
v 0.033203 -0.000000 1.500000
v 1.536621 3.443848 0.091797
v 0.776367 2.515137 0.092286
v 1.751953 3.391602 0.336915
v 1.001953 2.386719 0.395996
v -0.526856 2.057617 0.265625
v 0.014648 3.760254 0.250489
v -0.524902 2.568359 0.060059
v -0.132324 3.835938 0.123536
v 0.014648 3.760254 0.250489
v -0.526856 2.057617 0.265625
v 0.089355 3.721191 0.134278
v -0.245605 1.769043 0.070313
v -0.280273 3.015625 0.194336
v -0.904297 4.483398 0.311524
v -0.367188 2.997070 0.007325
v -0.998047 4.442871 0.174805
v -0.904297 4.483398 0.311524
v -0.280273 3.015625 0.194336
v -0.864258 4.518066 0.201173
v -0.152344 3.076660 0.021973
v -0.708496 1.863281 0.093262
v -0.319336 1.759277 0.479492
v -1.310059 2.725098 0.128907
v -0.999023 2.839844 0.316407
v -0.038574 1.843262 0.093262
v 1.001953 2.386719 0.395996
v 0.776367 2.515137 0.092286
vt 0.707031 -0.023438
vt 0.597656 -0.027344
vt 0.707031 -0.167969
vt 0.527344 -0.171875
vt 0.527344 -0.457031
vt 0.417969 -0.316406
vt 0.351562 -0.386719
vt 0.453125 -0.144531
vt 0.343750 -0.156250
vt 0.019531 -0.923828
vt 0.183594 -0.974609
vt 0.113281 -0.591797
vt 0.496094 -0.923828
vt 0.476562 -0.611328
vt 0.812500 -0.648438
vt 0.757812 -0.523438
vt 0.179688 -0.388672
vt 0.250000 0.052734
vt 0.242188 -0.160156
vt 0.339844 0.056641
vt 0.453125 0.058594
vt 0.972656 -0.923828
vt 0.820312 -0.974609
vt 0.472656 -0.031250
vt 0.421875 -0.169922
vt 0.339844 -0.041016
vt 0.250000 -0.050781
vt 0.453125 -0.039062
vn 0.691500 -0.453200 0.562500
vn 0.669800 -0.451100 0.589800
vn 0.636500 -0.441300 0.632600
vn -0.080000 0.171800 0.981900
vn 0.478400 0.095700 0.872900
vn 0.087900 0.632700 0.769400
vn -0.113300 0.160100 0.980600
vn 0.579800 0.376800 0.722400
vn 0.121000 0.146400 0.981800
vn -0.632500 0.341700 0.695100
vn -0.757300 0.281100 0.589500
vn -0.756200 0.179800 0.629200
vn -0.050800 0.591700 0.804500
vn 0.169700 0.370700 0.913100
vn 0.689200 0.353400 0.632600
vn 0.687000 -0.031200 0.726000
vn -0.709200 -0.314500 0.631000
vn -0.756200 0.179700 0.629200
vn -0.113300 0.160200 0.980600
vn -0.573700 -0.146300 0.805900
vn -0.560600 -0.238300 0.793100
vn -0.242100 -0.015600 0.970100
vn 0.486800 0.250300 0.836900
vn 0.634800 0.302700 0.710900
vn 0.771600 0.222700 0.595800
vn -0.050800 0.591700 0.804600
vn -0.599700 0.492300 0.630900
vn -0.564600 0.527400 0.634900
vn -0.597200 0.485900 0.638200
vn -0.758100 0.246200 0.603800
vn -0.686000 0.199400 0.699700
vn -0.603600 0.148500 0.783300
vn 0.776600 -0.242000 0.581600
vn 0.645900 -0.181500 0.741500
vn 0.486200 -0.111300 0.866800
vn -0.822800 -0.382900 0.420100
vn -0.769300 -0.382700 0.511600
vn -0.708600 -0.378700 0.595400
vn 0.849200 0.328000 0.413800
vn 0.793100 0.304700 0.527400
vn 0.722800 0.277400 0.632900
vn -0.080100 0.171800 0.981900
usemtl i5010102_02
s 1
f 1/1/1 2/2/2 3/3/3
f 2/2/2 4/4/4 3/3/3
f 3/3/3 4/4/4 5/5/5
f 4/4/4 6/6/6 5/5/5
f 5/5/5 6/6/6 7/7/7
f 6/6/6 8/8/8 7/7/7
f 7/7/7 8/8/8 9/9/9
f 10/10/10 11/11/11 12/12/12
f 11/11/11 13/13/13 12/12/12
f 12/12/12 13/13/13 14/14/14
f 13/13/13 15/15/15 14/14/14
f 14/14/14 15/15/15 16/16/16
f 17/17/17 18/12/18 19/7/19
f 18/12/18 20/14/14 19/7/19
f 19/7/19 20/14/14 21/5/5
f 20/14/14 22/16/16 21/5/5
f 21/5/5 22/16/16 23/3/3
f 24/18/20 25/19/21 26/20/22
f 25/19/21 27/9/9 26/20/22
f 26/20/22 27/9/9 28/21/23
f 27/9/9 29/8/8 28/21/23
f 30/22/24 31/15/15 32/23/25
f 31/15/15 33/13/26 32/23/25
f 34/24/27 35/25/28 36/2/29
f 35/25/28 37/4/4 36/2/29
f 38/9/30 39/26/31 40/19/31
f 39/26/31 41/27/32 40/19/31
f 42/26/33 43/9/34 44/28/34
f 43/9/34 45/8/35 44/28/34
f 46/9/36 47/26/37 48/19/37
f 47/26/37 49/27/38 48/19/37
f 50/26/39 51/9/40 52/28/40
f 51/9/40 53/8/41 52/28/40
f 54/17/17 55/7/19 56/19/21
f 55/7/19 57/9/9 56/19/21
f 58/6/6 59/4/42 60/25/28
o polygon0.054
v -4.425293 0.149902 3.597168
v 4.425293 0.149902 3.597168
v -4.425293 0.149903 -3.597168
v 4.425293 0.149903 -3.597168
vt 0.000000 0.000000
vt 0.000000 -1.000000
vt 1.000000 0.000000
vt 1.000000 -1.000000
vn 0.000000 1.000000 0.000000
usemtl i5010102_03
s 1
f 61/29/43 62/30/43 63/31/43
f 62/30/43 64/32/43 63/31/43
o polygon1.054
v -1.690430 3.930176 -1.249022
v 0.670898 3.416016 0.452637
v 0.202637 5.432129 -3.394530
v 2.513672 4.312988 -1.673827
v -0.772461 3.517090 0.818360
v 1.573242 2.854491 2.489747
v 1.135742 5.224121 -1.153808
v 3.434082 3.957031 0.479005
v -1.124512 7.160156 -3.206054
v -1.882324 5.354004 -0.317382
v 1.670898 6.096681 -2.514159
v 0.973144 4.400391 -0.547851
v 1.291992 4.062012 2.050782
v 4.097168 3.288086 1.532715
v 1.324707 5.897949 -0.608397
v 4.040039 4.523438 -1.149413
v -3.214844 4.443358 1.536134
v -0.879883 3.484375 3.073730
v -1.236816 6.123047 -0.389159
v 1.000488 4.569336 1.071778
v -4.500000 5.546875 0.314454
v -2.247070 5.138671 2.104981
v -2.760742 7.475586 -1.549804
v -0.421387 6.461914 0.197755
v -2.321777 6.932129 0.022950
v -0.854981 5.727050 2.288087
v 0.458008 8.110840 -1.128905
v 1.752930 6.331543 1.041505
v -1.649414 8.798828 -2.237792
v -3.043945 7.622070 0.235353
v 0.982910 8.480469 -0.791014
v -0.391602 6.742676 1.405763
v -2.783203 8.547852 1.150392
v -0.142090 8.177246 2.423829
v -1.388672 10.268070 -1.203611
v 1.252441 9.289551 0.069826
v -4.500000 3.914063 1.536134
v -2.433594 2.955077 3.073730
v -2.790527 5.593750 -0.389159
v -0.812012 4.040527 1.071778
v 0.091797 6.321777 -0.010253
v 2.266113 5.117188 1.587892
v 2.282715 7.500978 -2.072753
v 4.263184 5.721680 -0.502440
v -0.573242 9.199707 -1.018064
v -0.773438 8.022949 1.813966
v 2.424805 8.881348 -0.839354
v 2.124512 7.144042 1.734376
vt 0.000000 -1.000000
vt 1.000000 -1.000000
vt 0.000000 0.000000
vt 1.000000 0.000000
vn -0.152700 0.867800 0.472800
vn -0.031200 0.884000 0.466400
vn -0.031100 0.884000 0.466500
vn 0.091700 0.886600 0.453400
vn -0.162200 0.818700 0.550900
vn -0.041000 0.835200 0.548400
vn -0.040900 0.835200 0.548400
vn 0.082000 0.839600 0.537000
vn 0.171700 0.814200 0.554600
vn 0.228500 0.749800 0.620900
vn 0.228500 0.749800 0.621000
vn 0.281100 0.675600 0.681600
vn 0.314600 0.779700 0.541300
vn 0.398600 0.797300 0.453300
vn 0.398600 0.797200 0.453300
vn 0.476400 0.802500 0.359300
vn -0.076300 0.789200 0.609400
vn 0.044900 0.797300 0.601900
vn 0.045000 0.797300 0.601900
vn 0.167900 0.792800 0.585900
vn -0.289100 0.787100 0.544900
vn -0.166000 0.820500 0.547000
vn -0.166100 0.820600 0.546900
vn -0.041000 0.839100 0.542500
vn -0.134800 0.836300 0.531500
vn -0.017600 0.822500 0.568500
vn 0.099600 0.796900 0.595800
vn -0.099500 0.919300 0.380700
vn -0.054700 0.861800 0.504200
vn -0.054800 0.861900 0.504200
vn -0.011800 0.787800 0.615800
vn -0.138900 0.836700 0.529800
vn -0.021500 0.863400 0.504000
vn 0.097500 0.876100 0.472100
vn -0.088000 0.787500 0.610000
vn 0.050800 0.797100 0.601700
vn 0.189400 0.790900 0.581900
vn 0.062800 0.836200 0.544800
vn 0.185600 0.822700 0.537400
vn 0.304800 0.796900 0.521600
vn 0.074100 0.919300 0.386400
vn 0.166100 0.862000 0.478900
vn 0.166200 0.862000 0.478900
vn 0.254100 0.787800 0.561100
usemtl i5010102_01
s 1
f 65/33/44 66/34/45 67/35/46
f 66/34/45 68/36/47 67/35/46
f 69/33/48 70/34/49 71/35/50
f 70/34/49 72/36/51 71/35/50
f 73/35/52 74/33/53 75/36/54
f 74/33/53 76/34/55 75/36/54
f 77/33/56 78/34/57 79/35/58
f 78/34/57 80/36/59 79/35/58
f 81/33/60 82/34/61 83/35/62
f 82/34/61 84/36/63 83/35/62
f 85/33/64 86/34/65 87/35/66
f 86/34/65 88/36/67 87/35/66
f 89/33/68 90/34/69 91/35/69
f 90/34/69 92/36/70 91/35/69
f 93/35/71 94/33/72 95/36/73
f 94/33/72 96/34/74 95/36/73
f 97/33/75 98/34/76 99/35/76
f 98/34/76 100/36/77 99/35/76
f 101/33/78 102/34/79 103/35/79
f 102/34/79 104/36/80 103/35/79
f 105/33/81 106/34/82 107/35/82
f 106/34/82 108/36/83 107/35/82
f 109/35/84 110/33/85 111/36/86
f 110/33/85 112/34/87 111/36/86
